# xmcd CD database file
#
# Track frame offsets:
#	215
#	13782
#	26518
#	39767
#	52104
#	64030
#	78400
#	91781
#	109821
#	124567
#	141416
#	153864
#	169067
#	183948
#	203080
#	221454
#	244029
#	261014
#	280314
#
# Disc length: 3902 seconds
#
# Revision: 0
# Processed by: cddbd v1.5.1PL0 Copyright (c) Steve Scherf et al.
# Submitted via: CDex 1.51
#
DISCID=fc0f3c13
DTITLE=Louis Armstrong - let's jazz em Publico 02
DYEAR=2005
DGENRE=Jazz
TTITLE0=Copenhagen
TTITLE1=Drop that Sack
TTITLE2=I'm goin' Huntin
TTITLE3=St. Louis Blues
TTITLE4=Jubilee
TTITLE5=West End Blues
TTITLE6=Coal Cart Blues
TTITLE7=Mahogany Hall
TTITLE8=You Can't Loose a Broken Heart
TTITLE9=My Bucket Got's a Hole in it
TTITLE10=April in Portugal
TTITLE11=When It's Sleepy Time Down South
TTITLE12=Dippermouth Blues
TTITLE13=Let's Call the Whole Thing Off
TTITLE14=Just One of Those Things
TTITLE15=Summertime
TTITLE16=Cotton Tai
TTITLE17=Back Home Again to Indiana
TTITLE18=Cabaret
EXTD=YEAR: 2005
EXTT0=
EXTT1=
EXTT2=
EXTT3=
EXTT4=
EXTT5=
EXTT6=
EXTT7=
EXTT8=
EXTT9=
EXTT10=
EXTT11=
EXTT12=
EXTT13=
EXTT14=
EXTT15=
EXTT16=
EXTT17=
EXTT18=
PLAYORDER=
